<svg width="760" height="140" viewBox="0 0 760 140" xmlns="http://www.w3.org/2000/svg" role="img" aria-label="TrancheReady">
  <defs>
    <linearGradient id="tr-g" x1="0" y1="0" x2="1" y2="0">
      <stop offset="0" stop-color="#2455FF"/>
      <stop offset="1" stop-color="#7AA3FF"/>
    </linearGradient>
  </defs>
  <g transform="translate(0,8)">
    <path d="M62 0l74 24v78c0 50-38 86-74 104C26 188-12 152-12 102V24L62 0z"
          transform="translate(18,0)" fill="#0B1733" stroke="#213058" stroke-width="2"/>
    <path d="M20 76c18-6 36 10 56 4 30-10 52 12 96 2v30H20z" fill="url(#tr-g)" opacity=".32"/>
    <path d="M20 54c18-6 38 8 58 4 26-8 54 8 94 0v20H20z" fill="url(#tr-g)" opacity=".58"/>
    <path d="M44 64l20 20 48-48" fill="none" stroke="url(#tr-g)" stroke-width="10" stroke-linecap="round" stroke-linejoin="round"/>
  </g>
  <g transform="translate(148,30)">
    <text x="0" y="44" font-family="Inter, system-ui, -apple-system, Segoe UI, Roboto, Helvetica, Arial" font-size="48" font-weight="800" letter-spacing="-0.5" fill="#E8EFFF">Tranche</text>
    <text x="216" y="44" font-family="Inter, system-ui, -apple-system, Segoe UI, Roboto, Helvetica, Arial" font-size="48" font-weight="800" letter-spacing="-0.5" fill="url(#tr-g)">Ready</text>
    <text x="0" y="70" font-family="Inter, system-ui, -apple-system, Segoe UI, Roboto, Helvetica, Arial" font-size="14" fill="#9FB1D8">CSV in → signed ZIP out</text>
  </g>
</svg>
