<svg width="360" height="360" viewBox="0 0 360 360" xmlns="http://www.w3.org/2000/svg" role="img" aria-label="TrancheReady">
  <defs>
    <linearGradient id="tr-grad" x1="0" y1="0" x2="1" y2="0">
      <stop offset="0" stop-color="#2455FF"/>
      <stop offset="1" stop-color="#7AA3FF"/>
    </linearGradient>
  </defs>
  <!-- Shield base -->
  <path d="M180 24l110 36v116c0 82-62 142-110 168-48-26-110-86-110-168V60l110-36z"
        fill="#0B1733" stroke="#213058" stroke-width="2"/>
  <!-- Tranche waves -->
  <path d="M70 196c48-18 92 32 138 14 44-16 82 10 112 6v52c-34 40-80 72-140 104-60-32-106-64-140-104v-60c8-4 18-8 30-12z"
        fill="url(#tr-grad)" opacity=".22"/>
  <path d="M70 156c46-12 90 28 138 12 40-14 82 12 112 6v30c-54 18-96-24-140-10-46 14-90-20-110-38z"
        fill="url(#tr-grad)" opacity=".48"/>
  <!-- Verification check -->
  <path d="M116 176l36 36 92-92" fill="none" stroke="url(#tr-grad)" stroke-width="16" stroke-linecap="round" stroke-linejoin="round"/>
</svg>
